<?xml version="1.0" encoding="UTF-8" standalone="no"?><svg xmlns="http://www.w3.org/2000/svg" xmlns:xlink="http://www.w3.org/1999/xlink" fill="#000000" height="105.7" preserveAspectRatio="xMidYMid meet" version="1.1" viewBox="113.4 159.7 198.4 105.7" width="198.4" zoomAndPan="magnify">
 <g id="surface1">
  <g id="change1_1"><path d="m184.64 164.08l57.85 14.03-28.28 14.04-34.37-9.09 4.8-18.98" fill="#ffb923"/></g>
  <g id="change2_1"><path d="m286.92 221.62l-47.6 27.08-51.57 16.76-5.6-5.36 24.99-19.8-0.96-0.73-26.84 18.43-7.72-5.8 19.83-23.97-0.74-0.56-20.8 23.24-9.19-6.9 22.95-22.18-0.71-0.53-23.5 21.76-14.48-8.79 49.86-45.78 55.37-28.75 36.71 14.47v47.41" fill="#000000"/></g>
  <g id="change3_1"><path d="m311.81 229.88h-28.11v-70.14h28.11v70.14" fill="#ffb923"/></g>
  <g id="change1_2"><path d="m137.43 218.45l44.52 30.32 54.69 15.53 7.47-5.18-34.91-21.23 0.75-0.56 36.35 20.13 9.49-7.59-36.09-23.15 0.45-0.28 37.4 22.16 11.18-8.33-38.11-22.19 0.33-0.27 39.21 21.39 12.31-9.32-63.14-36.27-34.69-29.53-47.21 6.96v47.41" fill="#ffb923"/></g>
  <g id="change4_1"><path d="m141.5 229.88h-28.11v-70.14h28.11v70.14" fill="#000000"/></g>
  <g id="change2_2"><path d="m259.55 188.56l-70.61 15.78-9.1-10.54 70.37-34.06 9.34 28.82" fill="#000000"/></g>
 </g>
</svg>