<?xml version="1.0" encoding="UTF-8" standalone="no"?><svg xmlns="http://www.w3.org/2000/svg" xmlns:xlink="http://www.w3.org/1999/xlink" fill="#000000" height="194.6" preserveAspectRatio="xMidYMid meet" version="1.1" viewBox="116.1 115.9 194.2 194.6" width="194.2" zoomAndPan="magnify">
 <g id="surface1">
  <g id="change1_1"><path d="m273.24 305.34h-157.13v-189.48h123.54l14.9 14.5 18.69 18.19v156.79" fill="#ffb923"/></g>
  <g id="change2_1"><path d="m240.37 180.92h-91.39v-13.76h91.39v13.76" fill="#ffffff"/></g>
  <g id="change2_2"><path d="m250.13 207.65h-112.27v-7.23h112.27v7.23" fill="#ffffff"/></g>
  <g id="change2_3"><path d="m250.13 218.85h-112.27v-7.23h112.27v7.23" fill="#ffffff"/></g>
  <g id="change2_4"><path d="m250.13 229.74h-112.27v-7.22h112.27v7.22" fill="#ffffff"/></g>
  <g id="change2_5"><path d="m250.13 240.94h-112.27v-7.23h112.27v7.23" fill="#ffffff"/></g>
  <g id="change2_6"><path d="m250.13 251.91h-112.27v-7.22h112.27v7.22" fill="#ffffff"/></g>
  <g id="change2_7"><path d="m250.13 287.09h-112.27v-7.22h112.27v7.22" fill="#ffffff"/></g>
  <g id="change2_8"><path d="m211.16 263.11h-73.3v-7.22h73.3v7.22" fill="#ffffff"/></g>
  <g id="change2_9"><path d="m273.24 148.55h-33.59v-32.69z" fill="#ffffff"/></g>
  <g id="change3_1"><path d="m306.95 293.7c3.32 3.93 2.72 9.89-1.34 13.32-4.05 3.42-10.03 3.02-13.34-0.9l-63.17-80.99c-3.31-3.92-5.46-6.87-1.41-10.3 2.98-2.52 5.7-0.58 9.33 3.31l69.93 75.56" fill="#000000"/></g>
  <g id="change4_1"><path d="m268.39 194.84c15.22 18.01 12.47 45.35-6.14 61.08s-46.03 13.89-61.24-4.12c-15.22-18-12.47-45.35 6.13-61.08 18.62-15.72 46.04-13.88 61.25 4.12" fill="#000000"/></g>
  <g id="change5_1"><path d="m260.09 201.86c11.47 13.57 9.4 34.18-4.63 46.03-14.02 11.86-34.68 10.47-46.15-3.1s-9.4-34.18 4.62-46.03c14.03-11.86 34.69-10.47 46.16 3.1" fill="#ffffff"/></g>
 </g>
</svg>