<?xml version="1.0" encoding="UTF-8" standalone="no"?><svg xmlns="http://www.w3.org/2000/svg" xmlns:xlink="http://www.w3.org/1999/xlink" fill="#000000" height="179.9" preserveAspectRatio="xMidYMid meet" version="1.1" viewBox="113.4 122.7 198.4 179.9" width="198.4" zoomAndPan="magnify">
 <g id="surface1">
  <g id="change1_1"><path d="m306.65 218.35l-82.1 82.1-106-106 71.67-71.66 20.73-0.14 95.7 95.7" fill="#ffb923"/></g>
  <g id="change2_1"><path d="m200.59 133.07l10.36-10.42-20.73 0.14z" fill="#000000"/></g>
  <path d="m1490.4 2241.5l597.1 597.1" fill="none" stroke="#192646" stroke-linecap="round" stroke-miterlimit="10" stroke-width="22.664" transform="matrix(.1 0 0 -.1 0 425.2)"/>
  <path d="m1617.1 2114.8l597.1 597" fill="none" stroke="#192646" stroke-linecap="round" stroke-miterlimit="10" stroke-width="22.664" transform="matrix(.1 0 0 -.1 0 425.2)"/>
  <path d="m1743.8 1988.1l597.1 597.1" fill="none" stroke="#192646" stroke-linecap="round" stroke-miterlimit="10" stroke-width="22.664" transform="matrix(.1 0 0 -.1 0 425.2)"/>
  <path d="m1870.5 1861.4l597.1 597" fill="none" stroke="#192646" stroke-linecap="round" stroke-miterlimit="10" stroke-width="22.664" transform="matrix(.1 0 0 -.1 0 425.2)"/>
  <path d="m2015.4 1716.5l597.1 597.1" fill="none" stroke="#192646" stroke-linecap="round" stroke-miterlimit="10" stroke-width="22.664" transform="matrix(.1 0 0 -.1 0 425.2)"/>
  <path d="m2160.3 1571.6l597.1 597" fill="none" stroke="#192646" stroke-linecap="round" stroke-miterlimit="10" stroke-width="22.664" transform="matrix(.1 0 0 -.1 0 425.2)"/>
  <g id="change3_1"><path d="m305.14 302.55h-185.08c-3.68 0-6.67-2.99-6.67-6.67v-95.56c0-3.69 2.99-6.67 6.67-6.67h185.08c3.68 0 6.67 2.98 6.67 6.67v95.56c0 3.68-2.99 6.67-6.67 6.67" fill="#000000"/></g>
  <g id="change3_2"><path d="m186.84 219.61h-66.72c-3.72 0-6.73-3.01-6.73-6.73v-30.55c0-3.72 3.01-6.73 6.73-6.73h66.72c3.72 0 6.73 3.01 6.73 6.73v30.55c0 3.72-3.01 6.73-6.73 6.73" fill="#000000"/></g>
  <g id="change4_1"><path d="m298.33 288.55h-61.71v-11.93h61.71v11.93" fill="#ffffff"/></g>
  <g id="change1_2"><path d="m232.3 288.55h-13.71v-11.93h13.71v11.93" fill="#ffb923"/></g>
 </g>
</svg>