<?xml version="1.0" encoding="UTF-8" standalone="no"?><svg xmlns="http://www.w3.org/2000/svg" xmlns:xlink="http://www.w3.org/1999/xlink" fill="#000000" height="197.3" preserveAspectRatio="xMidYMid meet" version="1.1" viewBox="114.6 113.9 196.6 197.3" width="196.6" zoomAndPan="magnify">
 <g id="surface1">
  <g id="change1_1"><path d="m278.2 311.27h-163.65v-197.34h128.67l15.52 15.11 19.46 18.94v163.29" fill="#ffb923"/></g>
  <g id="change2_1"><path d="m243.96 181.69h-95.17v-14.33h95.17v14.33" fill="#000000"/></g>
  <g id="change2_2"><path d="m254.14 209.53h-116.94v-7.53h116.94v7.53" fill="#000000"/></g>
  <g id="change2_3"><path d="m254.14 221.19h-116.94v-7.52h116.94v7.52" fill="#000000"/></g>
  <g id="change2_4"><path d="m254.14 232.54h-116.94v-7.53h116.94v7.53" fill="#000000"/></g>
  <g id="change2_5"><path d="m254.14 244.2h-116.94v-7.52h116.94v7.52" fill="#000000"/></g>
  <g id="change2_6"><path d="m254.14 255.63h-116.94v-7.52h116.94v7.52" fill="#000000"/></g>
  <g id="change2_7"><path d="m254.14 292.27h-116.94v-7.52h116.94v7.52" fill="#000000"/></g>
  <g id="change2_8"><path d="m213.54 267.3h-76.34v-7.53h76.34v7.53" fill="#000000"/></g>
  <g id="change2_9"><path d="m278.2 147.98h-34.98v-34.05z" fill="#000000"/></g>
  <g id="change3_1"><path d="m307.43 174.97l-4.34 11.09-5.86-2.29 4.33-11.09 5.87 2.29" fill="#000000"/></g>
  <g id="change4_1"><path d="m310.33 170.75l-15.24 39.01-2.18-0.85 15.25-39.01 2.17 0.85" fill="#ffb923"/></g>
  <g id="change3_2"><path d="m265.24 272.86l-11.09-4.34 44.07-112.8 11.09 4.33-44.07 112.81" fill="#000000"/></g>
  <g id="change4_2"><path d="m259.69 270.69l-5.55-2.17 0.06 16.23 11.04-11.89-5.55-2.17" fill="#ffb923"/></g>
  <g id="change4_3"><path d="m297.83 189.45l-11.09-4.34 1.33-3.42 11.09 4.33-1.33 3.43" fill="#ffb923"/></g>
  <g id="change4_4"><path d="m304.67 171.93l5.85-14.97c0.67-1.73-1.27-4.09-4.33-5.28-3.06-1.2-6.08-0.78-6.76 0.94l-5.84 14.97 11.08 4.34" fill="#ffb923"/></g>
 </g>
</svg>